<svg xmlns="http://www.w3.org/2000/svg" viewBox="0 0 135.11 35.82"><defs><style>.cls-1{fill:#3c3429;}</style></defs><title>natural_logo_1</title><g id="Layer_2" data-name="Layer 2"><g id="Layer_1-2" data-name="Layer 1"><path class="cls-1" d="M14.89,13.67a24.93,24.93,0,0,0,1.51,2c.27.32.54.63.82.94l.45.48.45.45.13-.14.09-.13L18.5,17l.32-.49.61-1c.39-.67.78-1.35,1.14-2s.71-1.39,1-2.12A7.72,7.72,0,0,0,22.22,9a8.79,8.79,0,0,0-1.48-4.56c-.41-.67-.85-1.32-1.19-2A2.63,2.63,0,0,1,19.2.6a.48.48,0,0,0-.09-.43.48.48,0,0,0-.67-.06h0A17.32,17.32,0,0,0,15,3.82,10.21,10.21,0,0,0,13.8,6.16a9.13,9.13,0,0,0-.44,2.59,7.13,7.13,0,0,0,.36,2.62A10.58,10.58,0,0,0,14.89,13.67ZM14.56,8.8A9.37,9.37,0,0,1,16,4.44a14.15,14.15,0,0,1,2.33-2.88,4.36,4.36,0,0,0,.52,1.35c.41.71.87,1.33,1.29,2A8.14,8.14,0,0,1,21.63,9a6.93,6.93,0,0,1-.49,2.17c-.25.73-.57,1.43-.89,2.14s-.67,1.4-1,2.08l-.55,1-.29.5a2.57,2.57,0,0,0-.26.47c-.12-.19-.22-.37-.31-.53l-.31-.5-.65-1c-.44-.69-.86-1.4-1.22-2.11A7.74,7.74,0,0,1,14.56,8.8Z"/><path class="cls-1" d="M22.59,13l0,.26.05.23a.2.2,0,0,0,.11,0h.15l.21,0,.4-.07.8-.19A4.5,4.5,0,0,0,26,12.52,3.31,3.31,0,0,0,26.81,11c.14-.54.3-1.11.49-1.13a.46.46,0,0,0,.38-.38A.43.43,0,0,0,27.3,9l-.19,0a6.57,6.57,0,0,0-1.88,0,3.13,3.13,0,0,0-1.8.9,3.09,3.09,0,0,0-.6.86,3.55,3.55,0,0,0-.24,1,5.45,5.45,0,0,0,0,.9C22.57,12.7,22.57,12.85,22.59,13Zm.28.22a.68.68,0,0,0,.08-.17l.16-.41c.1-.27.2-.53.31-.78a2.62,2.62,0,0,1,.83-1.14,3.63,3.63,0,0,1,1.23-.65,3.7,3.7,0,0,1,.75-.16v0a8.24,8.24,0,0,0-.15.83,2.73,2.73,0,0,1-.53,1.33,4.32,4.32,0,0,1-1.31.74c-.25.11-.5.21-.76.3l-.38.13-.19.07-.1,0h0S22.84,13.26,22.87,13.22Z"/><path class="cls-1" d="M26.48,22.92a3,3,0,0,0-.86-.6,3.49,3.49,0,0,0-.95-.24,5.58,5.58,0,0,0-.91,0c-.15,0-.3,0-.45,0l-.26,0-.23.05a.36.36,0,0,0,0,.1v.16l0,.21.07.4c.06.27.12.54.19.8a4.89,4.89,0,0,0,.67,1.61,3.31,3.31,0,0,0,1.57.86c.54.14,1.11.3,1.13.49a.44.44,0,0,0,.38.37.43.43,0,0,0,.48-.37l0-.19a6.64,6.64,0,0,0,0-1.89A3.14,3.14,0,0,0,26.48,22.92Zm-.94,2.64A2.65,2.65,0,0,1,24.21,25a4.35,4.35,0,0,1-.74-1.3c-.11-.25-.2-.5-.3-.76L23,22.58,23,22.39l0-.1v0l.15.08a.45.45,0,0,0,.17.09l.41.16c.27.1.53.2.78.31a2.55,2.55,0,0,1,1.14.82,4,4,0,0,1,.81,2h0A8.24,8.24,0,0,0,25.54,25.56Z"/><path class="cls-1" d="M14.25,23.41l0-.45,0-.25,0-.24a.2.2,0,0,0-.11,0h0l-.1,0-.21,0-.4.08a7.91,7.91,0,0,0-.81.19,4.53,4.53,0,0,0-1.6.67A3.24,3.24,0,0,0,10,25c-.13.53-.29,1.1-.48,1.13a.43.43,0,0,0-.38.37.43.43,0,0,0,.38.48l.19,0a7,7,0,0,0,1.88,0,3.13,3.13,0,0,0,1.8-.9,3,3,0,0,0,.6-.86,3.4,3.4,0,0,0,.24-.95A5.58,5.58,0,0,0,14.25,23.41Zm-.31-.66a.79.79,0,0,0-.08.16l-.16.41c-.1.27-.2.53-.31.78a2.57,2.57,0,0,1-.83,1.14,3.63,3.63,0,0,1-1.23.65,3.7,3.7,0,0,1-.75.16v0c.07-.3.1-.57.15-.83a2.77,2.77,0,0,1,.53-1.33,4.54,4.54,0,0,1,1.31-.74c.25-.11.5-.2.76-.29l.38-.14.19-.06.1,0h0A1.14,1.14,0,0,1,13.94,22.75Z"/><path class="cls-1" d="M9.45,12.6a2.8,2.8,0,0,0,.86.61,3.79,3.79,0,0,0,.95.24,5.58,5.58,0,0,0,.91,0l.45,0,.25,0,.24-.06a.16.16,0,0,0,0-.1v0l0-.11,0-.2L13,12.49c-.05-.26-.11-.53-.19-.8a4.46,4.46,0,0,0-.67-1.6,3.24,3.24,0,0,0-1.57-.87c-.53-.14-1.1-.3-1.13-.49a.42.42,0,0,0-.37-.37.43.43,0,0,0-.48.37l0,.2a7,7,0,0,0,0,1.88A3.14,3.14,0,0,0,9.45,12.6ZM10.39,10a2.77,2.77,0,0,1,1.33.53,4.41,4.41,0,0,1,.74,1.31c.11.25.2.5.29.75l.14.38.06.2,0,.09v0l-.16-.09-.16-.08-.41-.16-.78-.31a2.57,2.57,0,0,1-1.14-.83,3.68,3.68,0,0,1-.65-1.24,3.47,3.47,0,0,1-.16-.74h0C9.86,9.89,10.13,9.92,10.39,10Z"/><path class="cls-1" d="M35.87,18.31a17,17,0,0,0-3.62-3.41A10.64,10.64,0,0,0,30,13.76a9.2,9.2,0,0,0-2.54-.43,7.05,7.05,0,0,0-2.57.36,9.93,9.93,0,0,0-2.25,1.15,23.94,23.94,0,0,0-2,1.48l-.92.8-.47.44-.43.44a.57.57,0,0,0,.13.14l.12.08.24.16.48.31,1,.6c.66.39,1.32.76,2,1.12s1.36.69,2.08,1a7.37,7.37,0,0,0,2.29.62,8.5,8.5,0,0,0,4.45-1.45c.67-.39,1.3-.82,1.94-1.15a2.58,2.58,0,0,1,1.86-.35.49.49,0,0,0,.43-.09.47.47,0,0,0,.06-.66Zm-2.74.35c-.7.4-1.31.86-1.94,1.26a8,8,0,0,1-4.05,1.52A7.2,7.2,0,0,1,25,21c-.71-.25-1.4-.56-2.09-.87s-1.37-.66-2-1l-1-.54-.49-.28a3.31,3.31,0,0,0-.45-.26l.51-.3.49-.3,1-.63c.68-.43,1.37-.84,2.07-1.19a7.52,7.52,0,0,1,4.33-1,9,9,0,0,1,4.26,1.35,14.74,14.74,0,0,1,2.81,2.26A4.58,4.58,0,0,0,33.13,18.66Z"/><path class="cls-1" d="M11.4,22.42a10.69,10.69,0,0,0,2.31-1.18c.7-.47,1.36-1,2-1.51.31-.27.63-.54.93-.82l.49-.45.45-.45a1.85,1.85,0,0,0-.14-.14l-.13-.08-.24-.17-.5-.31-1-.62c-.67-.39-1.35-.78-2.05-1.14s-1.4-.71-2.13-1a7.71,7.71,0,0,0-2.34-.65A8.89,8.89,0,0,0,4.5,15.38c-.68.41-1.33.85-2,1.19a2.62,2.62,0,0,1-1.91.36A.48.48,0,0,0,.17,17a.46.46,0,0,0-.06.66h0a17.61,17.61,0,0,0,3.72,3.48,10.32,10.32,0,0,0,2.35,1.17,9.13,9.13,0,0,0,2.59.44A7.37,7.37,0,0,0,11.4,22.42Zm-2.57-.84a9.31,9.31,0,0,1-4.38-1.4,14.85,14.85,0,0,1-2.89-2.33,4.28,4.28,0,0,0,1.35-.53c.72-.41,1.34-.87,2-1.29a8.23,8.23,0,0,1,4.16-1.55,7.31,7.31,0,0,1,2.17.5,22.14,22.14,0,0,1,2.15.89c.7.32,1.4.67,2.09,1l1,.56.51.29a2.88,2.88,0,0,0,.47.26l-.53.31-.5.31-1.05.65c-.69.44-1.4.86-2.11,1.22A7.87,7.87,0,0,1,8.83,21.58Z"/><path class="cls-1" d="M21.32,22.42c-.46-.69-1-1.33-1.47-2L19,19.54l-.44-.47-.44-.43a.83.83,0,0,0-.14.13l-.08.12-.16.24-.31.48-.6,1c-.39.66-.76,1.32-1.12,2s-.69,1.37-1,2.08A7.67,7.67,0,0,0,14.13,27a8.52,8.52,0,0,0,1.46,4.46c.39.67.82,1.3,1.15,1.94a2.58,2.58,0,0,1,.35,1.86.48.48,0,0,0,.09.43.46.46,0,0,0,.66.06h0a17,17,0,0,0,3.41-3.62,10.07,10.07,0,0,0,1.14-2.3,9.19,9.19,0,0,0,.43-2.53,7.11,7.11,0,0,0-.36-2.58A10.15,10.15,0,0,0,21.32,22.42Zm.31,4.77a9.14,9.14,0,0,1-1.36,4.26A14.37,14.37,0,0,1,18,34.26,4.58,4.58,0,0,0,17.5,33c-.4-.7-.86-1.31-1.26-1.94A8,8,0,0,1,14.72,27a7.27,7.27,0,0,1,.48-2.12c.25-.71.56-1.4.87-2.09s.66-1.37,1-2l.54-1,.29-.5a4.51,4.51,0,0,0,.25-.45l.3.51.3.49.63,1c.43.68.84,1.37,1.2,2.07A7.63,7.63,0,0,1,21.63,27.19Z"/><path class="cls-1" d="M59.15,2.78c-.29,0-.43.16-.43.49V21.14L49.91,3.55c-.23-.51-.81-.77-1.72-.77a1.49,1.49,0,0,0-1,.26,1.22,1.22,0,0,0-.3.94V23.92c0,.33.14.5.42.5s.46-.17.46-.5V6.05l8.78,17.56c.26.54.83.81,1.73.81S59.6,24,59.6,23.18V3.27C59.6,2.94,59.45,2.78,59.15,2.78Z"/><path class="cls-1" d="M69.68,10.78a6.66,6.66,0,0,0-2.33.39,8.6,8.6,0,0,0-3,1.93.48.48,0,0,0-.17.32.38.38,0,0,0,.14.25c.16.16.34.15.53,0a5.89,5.89,0,0,1,4.26-1.9,1.73,1.73,0,0,1,1.62.92,7,7,0,0,1,.46,3,11.18,11.18,0,0,0-5.6,1.16,4.14,4.14,0,0,0-2.22,3.84,3.82,3.82,0,0,0,1.86,3.63,5.39,5.39,0,0,0,2.61.46,4.08,4.08,0,0,0,3.28-1.27l.07-.07v.35c0,.47.48.71,1.45.71s1.44-.24,1.44-.71v-7.4q0-3.13-1.55-4.55A4.13,4.13,0,0,0,69.68,10.78Zm1.51,9.83a3.74,3.74,0,0,1-.63,2.33,2.39,2.39,0,0,1-2,.88,2.17,2.17,0,0,1-1.62-.67,3.6,3.6,0,0,1-.67-2.54,3.93,3.93,0,0,1,.84-2.82,5.58,5.58,0,0,1,4.09-1.3Z"/><path class="cls-1" d="M87,21.88a.46.46,0,0,0-.21-.07c-.12,0-.22.09-.32.28a4.22,4.22,0,0,1-1.09,1.22,2.11,2.11,0,0,1-1.23.51,1.74,1.74,0,0,1-1.55-1.06A10.54,10.54,0,0,1,82,18.5V12h4.55c.28,0,.42-.16.42-.46s-.14-.46-.42-.46H82V5.53c0-.29-.13-.43-.39-.43s-.35.14-.35.43c0,2-.35,3.47-1,4.3a3.52,3.52,0,0,1-2.84,1.23.4.4,0,0,0-.45.46.4.4,0,0,0,.45.46h1.73V18.5a14.37,14.37,0,0,0,.28,3.26,4.12,4.12,0,0,0,1.1,1.95,3.94,3.94,0,0,0,2.92,1,3.58,3.58,0,0,0,1.87-.46A4.83,4.83,0,0,0,87,22.44a.45.45,0,0,0,.11-.28A.31.31,0,0,0,87,21.88Z"/><path class="cls-1" d="M100.5,11.06c-1,0-1.45.25-1.45.74v8.81a3.77,3.77,0,0,1-.7,2.33,2.52,2.52,0,0,1-2.12.88A2.63,2.63,0,0,1,94,22.73,4.2,4.2,0,0,1,93.29,21a19.05,19.05,0,0,1-.2-3.22v-6c0-.49-.48-.74-1.44-.74s-1.45.25-1.45.74v6c0,2.91.63,4.86,1.87,5.85A5.4,5.4,0,0,0,95.6,24.7a4.12,4.12,0,0,0,3.31-1.27s0-.05.07-.09.07-.06.07-.09v.46c0,.47.48.71,1.45.71s1.44-.24,1.44-.71V11.8C101.94,11.31,101.46,11.06,100.5,11.06Z"/><path class="cls-1" d="M114.2,11.31a4.38,4.38,0,0,0-2.3-.53,4.49,4.49,0,0,0-2.29.53,3.91,3.91,0,0,0-.84.7V11.8c0-.49-.48-.74-1.45-.74s-1.44.25-1.44.74V23.71c0,.47.48.71,1.44.71s1.45-.24,1.45-.71V13.28a2.65,2.65,0,0,1,.93-1.13,2.54,2.54,0,0,1,1.47-.46,1.24,1.24,0,0,1,.91.32,2.14,2.14,0,0,1,.42,1.52c0,.47.49.7,1.45.7s1.44-.23,1.44-.7A2.38,2.38,0,0,0,114.2,11.31Z"/><path class="cls-1" d="M123.88,10.78a6.7,6.7,0,0,0-2.33.39,8.47,8.47,0,0,0-3,1.93.5.5,0,0,0-.18.32.43.43,0,0,0,.14.25c.17.16.34.15.53,0a5.89,5.89,0,0,1,4.27-1.9,1.75,1.75,0,0,1,1.62.92,7,7,0,0,1,.45,3,11.2,11.2,0,0,0-5.6,1.16,4.14,4.14,0,0,0-2.22,3.84,3.81,3.81,0,0,0,1.87,3.63,5.34,5.34,0,0,0,2.61.46,4.06,4.06,0,0,0,3.27-1.27l.07-.07v.35c0,.47.49.71,1.45.71s1.44-.24,1.44-.71v-7.4c0-2.09-.51-3.61-1.55-4.55A4.11,4.11,0,0,0,123.88,10.78Zm1.51,9.83a3.74,3.74,0,0,1-.63,2.33,2.39,2.39,0,0,1-2,.88,2.2,2.2,0,0,1-1.62-.67,3.6,3.6,0,0,1-.67-2.54,3.88,3.88,0,0,1,.85-2.82,5.57,5.57,0,0,1,4.08-1.3Z"/><path class="cls-1" d="M133.67.77c-1,0-1.45.24-1.45.74v22.2c0,.47.48.71,1.45.71s1.44-.24,1.44-.71V1.51C135.11,1,134.63.77,133.67.77Z"/><path class="cls-1" d="M52.65,28.9a1.22,1.22,0,0,0-.9-.32,1.83,1.83,0,0,0-.94.24,3.35,3.35,0,0,0-.42.32,1,1,0,0,0-.19-.24,1.19,1.19,0,0,0-.88-.32,1.84,1.84,0,0,0-1,.24,1.51,1.51,0,0,0-.31.23V29c0-.19-.18-.28-.54-.28S47,28.78,47,29v4.47c0,.17.18.26.54.26s.54-.09.54-.26v-4a1.41,1.41,0,0,1,.95-.47.43.43,0,0,1,.41.3,5.12,5.12,0,0,1,.13,1.52v2.69c0,.17.18.26.53.26s.55-.09.55-.26V30.75a5.09,5.09,0,0,0-.12-1.35,1.43,1.43,0,0,1,.94-.47.42.42,0,0,1,.41.3A5.51,5.51,0,0,1,52,30.75v2.69c0,.17.18.26.54.26s.54-.09.54-.26V30.75A5.89,5.89,0,0,0,53,29.52,1.24,1.24,0,0,0,52.65,28.9Z"/><path class="cls-1" d="M56.46,28.58a2.62,2.62,0,0,0-1.59.41,2.57,2.57,0,0,0-.79,2.21,2.55,2.55,0,0,0,.79,2.2,3.27,3.27,0,0,0,3.17,0,2.55,2.55,0,0,0,.8-2.2A2.57,2.57,0,0,0,58,29,2.61,2.61,0,0,0,56.46,28.58Zm.95,4.48a1.09,1.09,0,0,1-.95.45,1.1,1.1,0,0,1-1-.45,3.62,3.62,0,0,1-.34-1.86,3.71,3.71,0,0,1,.34-1.88,1.1,1.1,0,0,1,1-.45,1.09,1.09,0,0,1,.95.45,3.6,3.6,0,0,1,.34,1.88A3.51,3.51,0,0,1,57.41,33.06Z"/><path class="cls-1" d="M63,28.78a1.95,1.95,0,0,0-1.72,0,1.43,1.43,0,0,0-.32.27V29c0-.19-.18-.28-.54-.28s-.55.09-.55.28v4.47c0,.17.19.26.55.26s.54-.09.54-.26V29.52a1,1,0,0,1,.35-.42.88.88,0,0,1,.55-.17.45.45,0,0,1,.34.12.75.75,0,0,1,.16.56q0,.27.54.27c.36,0,.55-.09.55-.27A.92.92,0,0,0,63,28.78Z"/><path class="cls-1" d="M66.55,28.58A2.62,2.62,0,0,0,65,29a2.57,2.57,0,0,0-.8,2.21,2.55,2.55,0,0,0,.8,2.2,3.27,3.27,0,0,0,3.17,0,2.55,2.55,0,0,0,.79-2.2A2.57,2.57,0,0,0,68.13,29,2.61,2.61,0,0,0,66.55,28.58Zm1,4.48a1.24,1.24,0,0,1-1.91,0,3.51,3.51,0,0,1-.34-1.86,3.6,3.6,0,0,1,.34-1.88,1.24,1.24,0,0,1,1.91,0,3.6,3.6,0,0,1,.34,1.88A3.51,3.51,0,0,1,67.5,33.06Z"/><path class="cls-1" d="M73.35,32.87a.13.13,0,0,0-.11.05,1.61,1.61,0,0,1-1.1.56,1,1,0,0,1-.84-.42,1.54,1.54,0,0,1-.27-.65A8.38,8.38,0,0,1,71,31.2a3.63,3.63,0,0,1,.34-1.88,1,1,0,0,1,.84-.39.93.93,0,0,1,.79.33,1.34,1.34,0,0,1,.27.86c0,.1,0,.16.13.16s.13-.06.13-.16a1.6,1.6,0,0,0-.32-1.06,1.53,1.53,0,0,0-1.24-.48,2,2,0,0,0-1.32.41,2.73,2.73,0,0,0-.7,2.21,2.72,2.72,0,0,0,.7,2.2,2,2,0,0,0,1.32.41,2,2,0,0,0,1-.27,2.83,2.83,0,0,0,.54-.42.24.24,0,0,0,.07-.13C73.49,32.91,73.44,32.87,73.35,32.87Z"/><path class="cls-1" d="M77.84,32.87a.13.13,0,0,0-.12.05,1.61,1.61,0,0,1-1.1.56,1,1,0,0,1-.83-.42,1.32,1.32,0,0,1-.27-.65,6.89,6.89,0,0,1-.08-1.21,3.51,3.51,0,0,1,.35-1.88,1,1,0,0,1,.83-.39.92.92,0,0,1,.79.33,1.34,1.34,0,0,1,.27.86c0,.1,0,.16.13.16s.13-.06.13-.16a1.54,1.54,0,0,0-.32-1.06,1.53,1.53,0,0,0-1.24-.48,2,2,0,0,0-1.32.41,2.73,2.73,0,0,0-.7,2.21,2.72,2.72,0,0,0,.7,2.2,2,2,0,0,0,1.32.41,2,2,0,0,0,1-.27,2.32,2.32,0,0,0,.54-.42A.19.19,0,0,0,78,33C78,32.91,77.92,32.87,77.84,32.87Z"/><path class="cls-1" d="M81.22,28.58a2.65,2.65,0,0,0-1.59.41,2.6,2.6,0,0,0-.79,2.21,2.58,2.58,0,0,0,.79,2.2,3.29,3.29,0,0,0,3.18,0,2.55,2.55,0,0,0,.79-2.2A2.57,2.57,0,0,0,82.81,29,2.62,2.62,0,0,0,81.22,28.58Zm1,4.48a1.23,1.23,0,0,1-1.9,0,3.51,3.51,0,0,1-.34-1.86,3.6,3.6,0,0,1,.34-1.88,1.23,1.23,0,0,1,1.9,0,3.58,3.58,0,0,1,.35,1.88A3.49,3.49,0,0,1,82.17,33.06Z"/></g></g></svg>